# xmcd
#
# Track frame offsets:
#	150
#	23552
#	39982
#	50650
#	69820
#	82302
#	100815
#	127842
#	153542
#	181750
#
# Disc length: 2574 seconds
#
# Revision: 0
# Processed by: cddbd v1.4PL0 Copyright (c) Steve Scherf et al.
# Submitted via: audiograbber 1.81.01
#
DISCID=740a0c0a
DTITLE=Vincent Yannucci - Soul Groovers
DYEAR=2002
DGENRE=Blues
TTITLE0=Nights On Lafayette Street
TTITLE1=Back To L.A.
TTITLE2=Santa Ana Winds
TTITLE3=Don't You Try To Tell Me
TTITLE4=Wicked Venture
TTITLE5=Dog Eat Dog World
TTITLE6=Eclipse
TTITLE7=Taught Me How To Boogie
TTITLE8=Night Flight
TTITLE9=Santa Ana Winds "LIVE"
EXTD=
EXTT0=
EXTT1=
EXTT2=
EXTT3=
EXTT4=
EXTT5=
EXTT6=
EXTT7=
EXTT8=
EXTT9=
PLAYORDER=
